<?xml version="1.0" encoding="utf-8"?>
<!-- Generator: Adobe Illustrator 16.0.0, SVG Export Plug-In . SVG Version: 6.00 Build 0)  -->
<!DOCTYPE svg PUBLIC "-//W3C//DTD SVG 1.1//EN" "http://www.w3.org/Graphics/SVG/1.1/DTD/svg11.dtd">
<svg version="1.1" id="Layer_1" xmlns="http://www.w3.org/2000/svg" xmlns:xlink="http://www.w3.org/1999/xlink" x="0px" y="0px"
	 width="100px" height="87.5px" viewBox="0 0 100 87.5" enable-background="new 0 0 100 87.5" xml:space="preserve">
<path d="M50,0L0,50h12.5v37.5h75V50H100L50,0z M67.779,28.294c2.416,0,4.4,1.973,4.4,4.395c0,2.441-1.984,4.401-4.4,4.401
	c-2.44,0-4.407-1.959-4.407-4.401C63.372,30.267,65.339,28.294,67.779,28.294z M49.994,55.052c1.503,0,2.708,1.191,2.708,2.689
	c0,1.483-1.205,2.694-2.708,2.694c-1.491,0-2.715-1.211-2.715-2.694C47.279,56.243,48.502,55.052,49.994,55.052z M32.213,28.301
	c2.441,0,4.414,1.966,4.414,4.401c0,2.429-1.973,4.401-4.414,4.401c-2.422,0-4.395-1.973-4.395-4.401
	C27.819,30.267,29.792,28.301,32.213,28.301z M36.576,62.839l-0.879,16.229c0,0.566-0.462,1.035-1.022,1.035
	c-0.586,0-1.042-0.469-1.042-1.035l-0.951-16.229h-0.983l-0.892,16.229c0,0.566-0.456,1.035-1.035,1.035
	c-0.553,0-1.016-0.469-1.016-1.035l-0.898-16.229h-2.864l2.969-18.21L21.986,56.53c-0.222,0.521-0.84,0.78-1.367,0.565
	c-0.515-0.234-0.769-0.826-0.534-1.361c0,0,4.395-11.849,5.456-14.042c1.087-2.227,2.161-3.568,6.263-3.568h0.833
	c4.115,0,5.182,1.341,6.256,3.568c1.094,2.194,5.462,14.042,5.462,14.042c0.221,0.535-0.013,1.127-0.541,1.361
	c-0.527,0.215-1.133-0.046-1.348-0.565l-5.977-11.901l2.956,18.21H36.576z M58.404,58.386c-0.116,0.177-2.52,3.888-3.926,4.739
	c-1.36,0.827-1.405,0.462-1.522,1.66l-0.177,3.566l0.509,10.371c0.021,0.092,0,0.586-0.015,0.612
	c-0.143,0.437-0.553,0.769-1.027,0.769s-0.866-0.299-1.048-0.709c0-0.014-1.205-8.465-1.205-8.465s-1.211,8.451-1.211,8.465
	c-0.163,0.41-0.566,0.709-1.035,0.709c-0.469,0-0.886-0.332-1.016-0.769c-0.033-0.026-0.039-0.521-0.033-0.612l0.514-10.371
	l-0.169-3.566c-0.117-1.198-0.169-0.833-1.53-1.66c-1.406-0.854-3.809-4.562-3.926-4.739c-0.117-0.176-0.345-0.521-0.377-0.71
	c-0.078-0.391,0.169-0.749,0.553-0.812c0.28-0.053,0.508,0.109,0.684,0.299c0.195,0.195,2.956,3.861,5,4.213
	c0.469-0.059,0.983-0.3,2.292-0.3h0.521c1.303,0,1.817,0.241,2.286,0.3c2.052-0.352,4.806-4.018,4.979-4.213
	c0.183-0.188,0.424-0.352,0.703-0.299c0.377,0.063,0.625,0.423,0.547,0.812C58.743,57.864,58.521,58.21,58.404,58.386z
	 M79.361,57.077c-0.521,0.221-1.139-0.033-1.36-0.562l-5.364-11.895l-0.293,9.564h-0.013l0.846,24.062
	c0.06,0.95-0.645,1.782-1.595,1.849c-0.053,0.008-0.091,0.008-0.13,0.008c-0.897,0-1.667-0.69-1.72-1.615l-1.967-19.812
	l-1.953,19.812c-0.078,0.925-0.84,1.615-1.725,1.615c-0.053,0-0.085,0-0.131-0.008c-0.943-0.064-1.666-0.897-1.607-1.849
	l0.859-24.062l-0.293-9.564l-5.391,11.895c-0.215,0.527-0.82,0.781-1.349,0.562c-0.526-0.222-0.762-0.834-0.54-1.367
	c0,0,3.77-11.843,4.856-14.037c1.073-2.207,2.754-3.555,6.854-3.555h0.846c4.103,0,5.77,1.348,6.851,3.555
	c1.087,2.194,4.869,14.037,4.869,14.037C80.148,56.243,79.896,56.855,79.361,57.077z"/>
</svg>
